<svg width="7691" height="2436" viewBox="0 0 7691 2436" fill="none" xmlns="http://www.w3.org/2000/svg">
<circle cx="1082" cy="1229.42" r="1000" fill="#CDE66D"/>
<circle cx="285.5" cy="1722.92" r="137.5" fill="#0B7878"/>
<circle cx="2044" cy="1485.42" r="100" fill="#0B7878"/>
<circle cx="2082" cy="1233.42" r="75" fill="#0B7878"/>
<line x1="1121.87" y1="386.881" x2="1148.08" y2="643.491" stroke="#0B7878" stroke-width="50"/>
<path d="M1529.56 368.422C1600.17 476.982 1970.36 782.416 2166.39 781.632" stroke="#0B7878" stroke-width="50"/>
<path d="M1733.17 1167.83C1929.45 1096.32 2117.44 912.462 2147.51 773.588" stroke="#0B7878" stroke-width="50"/>
<path d="M1894.11 1989.04C1868.66 1661.86 1688.39 1054.75 1669.28 997.546" stroke="#0B7878" stroke-width="50"/>
<path d="M1916.82 1984.95C731.668 2105.98 316.074 2334.51 317.214 2358.82" stroke="#0B7878" stroke-width="50"/>
<path d="M683.113 381.018C951.361 711.609 1326.34 718.683 1548.91 369.311" stroke="#0B7878" stroke-width="50"/>
<path d="M303.333 2366.51C760.154 1782.17 792.887 1356.06 733.911 1081.56" stroke="#0B7878" stroke-width="50"/>
<path d="M111.615 836.878C127.982 1115.39 475.868 1377.97 745.185 1358.03" stroke="#0B7878" stroke-width="50"/>
<path d="M108 868.627C233.259 832.348 636.936 565.514 694.762 377" stroke="#0B7878" stroke-width="50"/>
<path fill-rule="evenodd" clip-rule="evenodd" d="M1229.07 220.073C1239.32 302.278 1181 377.233 1098.79 387.489C1098.16 387.568 1097.53 387.643 1096.89 387.714C1099.11 395.317 1100.75 403.195 1101.76 411.305C1102.86 420.1 1103.17 428.812 1102.75 437.37C1103.5 437.286 1104.24 437.197 1104.98 437.105C1214.59 423.43 1292.36 323.49 1278.68 213.883C1265.01 104.276 1165.07 26.5071 1055.46 40.182C945.854 53.8569 868.085 153.797 881.76 263.404C883.095 274.101 885.251 284.495 888.158 294.53C902.355 287.739 917.871 283.085 934.347 281.029C934.98 280.95 935.613 280.875 936.245 280.804C934.029 273.202 932.387 265.324 931.375 257.214C921.119 175.008 979.446 100.054 1061.65 89.7974C1143.86 79.5412 1218.81 137.868 1229.07 220.073Z" fill="#0B7878"/>
<path d="M2728.21 1291.58C2728.21 1301.02 2726.58 1321.37 2723.33 1352.62C2713.24 1445.07 2708.19 1502.52 2708.19 1524.98C2708.19 1539.95 2711.28 1553.95 2717.47 1566.97C2726.58 1586.5 2738.79 1596.27 2754.09 1596.27C2757.35 1596.27 2760.76 1595.94 2764.34 1595.29C2773.78 1593.01 2787.46 1585.36 2805.36 1572.34C2822.94 1559.32 2837.1 1552.81 2847.84 1552.81C2852.4 1552.81 2856.95 1554.44 2861.51 1557.7C2870.63 1564.21 2875.18 1572.83 2875.18 1583.57C2873.88 1600.18 2861.02 1617.75 2836.61 1636.31C2806.66 1657.14 2775.25 1667.56 2742.37 1667.56C2714.7 1667.56 2691.75 1657.96 2673.52 1638.75C2646.18 1609.45 2632.51 1562.9 2632.51 1499.1C2632.51 1477.29 2636.9 1434.65 2645.69 1371.17C2649.6 1341.55 2652.36 1319.74 2653.99 1305.74C2654.32 1302.81 2654.64 1299.88 2654.97 1296.95C2660.18 1264.4 2673.52 1248.12 2695.01 1248.12C2698.59 1248.12 2702.17 1248.45 2705.75 1249.1C2720.72 1252.68 2728.21 1266.84 2728.21 1291.58ZM2672.55 1163.65C2672.55 1157.79 2673.85 1152.26 2676.45 1147.05C2682.96 1134.36 2693.54 1128.01 2708.19 1128.01C2714.05 1128.01 2719.58 1129.31 2724.79 1131.91C2737.49 1138.42 2743.84 1149 2743.84 1163.65C2743.84 1169.51 2742.53 1175.05 2739.93 1180.25C2733.42 1192.95 2722.84 1199.3 2708.19 1199.3C2702.33 1199.3 2696.8 1197.99 2691.59 1195.39C2678.89 1188.88 2672.55 1178.3 2672.55 1163.65ZM3488.95 1051.84C3488.95 1067.79 3492.7 1082.11 3500.18 1094.8C3520.69 1130.29 3564.96 1148.03 3633 1148.03C3638.2 1120.36 3640.81 1095.94 3640.81 1074.79C3640.81 1060.14 3638.69 1046.3 3634.46 1033.28C3622.74 999.102 3600.12 982.012 3566.59 982.012C3550.31 982.012 3535.5 985.918 3522.16 993.73C3500.02 1007.08 3488.95 1026.45 3488.95 1051.84ZM3011.41 910.723C3017.92 910.723 3024.11 912.35 3029.97 915.605C3042.99 923.092 3049.83 934.16 3050.48 948.809C3036.8 1055.58 3026.23 1139.4 3018.74 1200.27C3000.18 1349.04 2990.91 1433.35 2990.91 1453.2C2990.91 1535.56 3012.07 1576.9 3054.38 1577.23C3089.54 1577.23 3124.21 1569.41 3158.39 1553.79C3146.34 1505.61 3140.32 1459.06 3140.32 1414.14C3140.32 1373.78 3142.76 1337.97 3147.64 1306.72C3164.9 1199.3 3210.31 1145.59 3283.88 1145.59C3313.82 1145.59 3339.21 1154.54 3360.05 1172.44C3387.72 1196.53 3401.55 1230.38 3401.55 1274C3401.55 1285.4 3401.06 1296.95 3400.09 1308.67C3393.25 1382.57 3366.88 1452.23 3320.98 1517.66C3299.17 1548.91 3280.13 1569.74 3263.86 1580.16C3266.46 1588.62 3275.57 1592.85 3291.2 1592.85C3361.84 1592.53 3427.59 1553.95 3488.46 1477.13C3539.9 1411.7 3582.05 1327.71 3614.93 1225.18C3555.68 1222.57 3508.16 1206.95 3472.35 1178.3C3430.68 1144.77 3409.85 1098.39 3409.85 1039.14C3410.18 998.451 3426.45 963.945 3458.68 935.625C3487 911.536 3518.58 899.492 3553.41 899.492C3598.65 899.492 3636.41 914.141 3666.69 943.438C3700.87 976.966 3717.96 1021.56 3717.96 1077.23C3717.96 1089.92 3716.82 1110.43 3714.54 1138.75C3721.7 1137.12 3728.86 1135.01 3736.02 1132.4C3753.6 1126.54 3775.41 1115.48 3801.45 1099.2C3820.01 1087.48 3835.31 1081.62 3847.35 1081.62C3852.56 1081.62 3857.44 1082.92 3862 1085.53C3874.37 1092.69 3880.55 1103.59 3880.55 1118.24C3880.23 1138.1 3864.12 1157.47 3832.21 1176.35C3794.45 1198.48 3749.21 1213.13 3696.47 1220.29C3666.85 1331.95 3623.72 1426.51 3567.08 1503.98C3485.7 1615.31 3388.53 1670.98 3275.57 1670.98C3272.97 1670.98 3270.04 1670.81 3266.79 1670.49C3236.19 1668.21 3210.31 1655.03 3189.15 1630.94C3142.6 1655.35 3092.47 1667.56 3038.76 1667.56C3009.46 1667.56 2984.88 1658.77 2965.03 1641.19C2927.59 1607.99 2908.88 1547.77 2908.88 1460.53C2908.88 1401.28 2916.85 1323.97 2932.8 1228.59C2948.1 1135.49 2957.38 1069.9 2960.63 1031.82C2928.41 1052.32 2902.85 1068.27 2883.97 1079.67C2852.07 1099.2 2833.19 1108.96 2827.33 1108.96C2820.17 1108.96 2813.17 1107.01 2806.34 1103.11C2793.64 1094.97 2787.29 1083.57 2787.29 1068.93C2787.62 1055.25 2795.43 1043.05 2810.73 1032.3C2812.36 1031 2816.1 1028.4 2821.96 1024.49C2932.31 948.646 2995.46 910.723 3011.41 910.723ZM3227.23 1503.01C3237.65 1494.87 3248.56 1483.15 3259.95 1467.85C3298.04 1416.09 3317.08 1355.87 3317.08 1287.19C3317.08 1284.26 3316.92 1281.33 3316.59 1278.4C3314.96 1251.71 3302.59 1238.36 3279.48 1238.36C3262.23 1238.68 3247.9 1254.64 3236.51 1286.21C3224.14 1322.99 3217.96 1367.92 3217.96 1420.98C3217.96 1440.83 3221.05 1468.18 3227.23 1503.01ZM4091.98 932.695C4093.61 936.276 4095.24 940.671 4096.86 945.879C4104.68 972.572 4147.81 1197.34 4226.26 1620.2C4227.23 1623.45 4227.72 1626.71 4227.72 1629.96C4227.72 1636.8 4225.93 1643.47 4222.35 1649.98C4214.54 1663.33 4203.63 1670 4189.64 1670C4187.68 1670 4185.57 1669.84 4183.29 1669.51C4167.66 1666.91 4157.57 1657.96 4153.02 1642.66L4109.07 1419.51H3884.46L3778.99 1643.63C3777.69 1645.91 3776.06 1648.19 3774.11 1650.47C3764.02 1663.49 3752.95 1670 3740.91 1670C3733.42 1670 3726.42 1667.88 3719.91 1663.65C3708.19 1655.51 3702.33 1644.61 3702.33 1630.94C3702.33 1627.03 3703.15 1623.12 3704.77 1619.22C3711.61 1603.59 3722.84 1579.02 3738.46 1545.49C3894.71 1203.69 3988.14 1002.03 4018.74 940.508C4027.53 922.604 4040.06 913.49 4056.34 913.164C4071.96 913.49 4083.84 920 4091.98 932.695ZM4042.66 1083.09L3921.57 1337.97H4092.47L4042.66 1083.09ZM4427.43 1629.96C4422.87 1656.33 4409.53 1669.67 4387.39 1670C4379.9 1670 4373.23 1668.05 4367.37 1664.14C4354.35 1655.68 4347.84 1641.84 4347.84 1622.64C4362.49 1500.24 4391.95 1276.12 4436.22 950.273C4437.2 943.763 4440.61 937.741 4446.47 932.207C4457.54 922.116 4471.05 917.07 4487 917.07C4515.97 911.536 4547.87 908.77 4582.7 908.77C4607.44 908.77 4630.23 910.56 4651.06 914.141C4742.53 930.742 4788.27 981.198 4788.27 1065.51C4788.27 1098.39 4782.9 1129.15 4772.16 1157.79C4739.28 1246.01 4658.39 1310.3 4529.48 1350.66L4799.01 1596.76C4809.75 1608.15 4815.29 1619.87 4815.61 1631.91C4815.61 1638.42 4813.82 1644.93 4810.24 1651.45C4802.43 1663.82 4791.85 1670 4778.5 1670C4768.09 1670 4757.51 1666.42 4746.77 1659.26C4739.28 1654.05 4643.09 1566.32 4458.19 1396.07C4441.92 1525.63 4431.66 1603.59 4427.43 1629.96ZM4510.44 988.359C4510.44 988.359 4497.9 1085.85 4472.84 1280.84C4519.06 1274 4562.68 1258.87 4603.7 1235.43C4674.99 1193.76 4710.63 1137.77 4710.63 1067.46C4710.31 1011.15 4667.66 982.663 4582.7 982.012C4576.19 982.012 4552.1 984.128 4510.44 988.359ZM5031.43 912.188C5043.48 910.56 5060.24 909.746 5081.73 909.746C5137.72 909.746 5186.87 919.023 5229.19 937.578C5323.59 978.594 5370.79 1060.62 5370.79 1183.67C5370.79 1209.71 5369.65 1235.1 5367.37 1259.84C5352.72 1417.4 5292.99 1531 5188.17 1600.66C5118.51 1646.89 5036.8 1670 4943.05 1670C4935.57 1670 4928.89 1668.05 4923.04 1664.14C4910.01 1655.68 4903.5 1641.84 4903.5 1622.64C4903.5 1616.13 4933.13 1392.01 4992.37 950.273C4992.7 945.065 4993.84 940.182 4995.79 935.625C5002.62 920.651 5014.51 912.839 5031.43 912.188ZM5294.13 1187.09C5294.13 1137.29 5284.04 1095.94 5263.86 1063.07C5232.28 1011.63 5180.2 985.918 5107.61 985.918C5094.58 985.918 5080.26 987.057 5064.64 989.336L4988.95 1586.02C4993.84 1585.69 4999.04 1585.36 5004.58 1585.04C5064.8 1579.18 5118.18 1557.53 5164.73 1520.1C5251 1450.76 5294.13 1339.76 5294.13 1187.09ZM5539.73 1629.96C5535.18 1656.33 5521.83 1669.67 5499.7 1670C5492.21 1670 5485.54 1668.05 5479.68 1664.14C5466.65 1655.68 5460.14 1641.84 5460.14 1622.64C5474.79 1500.24 5504.25 1276.12 5548.52 950.273C5549.5 943.763 5552.92 937.741 5558.78 932.207C5569.85 922.116 5583.35 917.07 5599.3 917.07C5628.28 911.536 5660.18 908.77 5695.01 908.77C5719.75 908.77 5742.53 910.56 5763.37 914.141C5854.84 930.742 5900.57 981.198 5900.57 1065.51C5900.57 1098.39 5895.2 1129.15 5884.46 1157.79C5851.58 1246.01 5770.69 1310.3 5641.79 1350.66L5911.32 1596.76C5922.06 1608.15 5927.59 1619.87 5927.92 1631.91C5927.92 1638.42 5926.13 1644.93 5922.55 1651.45C5914.73 1663.82 5904.15 1670 5890.81 1670C5880.39 1670 5869.81 1666.42 5859.07 1659.26C5851.58 1654.05 5755.39 1566.32 5570.5 1396.07C5554.22 1525.63 5543.97 1603.59 5539.73 1629.96ZM5622.74 988.359C5622.74 988.359 5610.21 1085.85 5585.14 1280.84C5631.37 1274 5674.99 1258.87 5716 1235.43C5787.29 1193.76 5822.94 1137.77 5822.94 1067.46C5822.61 1011.15 5779.97 982.663 5695.01 982.012C5688.5 982.012 5664.41 984.128 5622.74 988.359ZM5979.68 1360.43C5979.68 1307.37 5987.33 1253.82 6002.62 1199.79C6026.39 1116.13 6062.85 1046.95 6112 992.266C6162.78 935.625 6216.33 907.305 6272.64 907.305C6325.38 907.63 6370.14 931.719 6406.92 979.57C6445.98 1030.68 6468.12 1098.39 6473.33 1182.7C6484.07 1178.79 6499.86 1171.95 6520.69 1162.19C6547.06 1149.49 6567.08 1143.14 6580.75 1143.14C6586.93 1143.14 6592.79 1144.77 6598.33 1148.03C6610.37 1155.19 6616.39 1165.61 6616.39 1179.28C6616.07 1191.65 6610.37 1203.53 6599.3 1214.92C6575.22 1238.68 6532.74 1256.26 6471.86 1267.66C6468.93 1303.46 6462.75 1338.78 6453.31 1373.61C6430.52 1459.88 6394.06 1530.68 6343.93 1586.02C6293.15 1642.01 6238.63 1670 6180.36 1670C6173.2 1670 6166.04 1669.51 6158.88 1668.54C6108.74 1661.37 6067.24 1631.59 6034.36 1579.18C5997.9 1520.91 5979.68 1447.99 5979.68 1360.43ZM6062.68 1347.25C6062.68 1406.49 6071.15 1458.09 6088.07 1502.03C6110.86 1560.95 6144.39 1590.41 6188.66 1590.41C6199.73 1590.41 6211.28 1587.64 6223.33 1582.11C6258.81 1565.83 6292.18 1529.86 6323.43 1474.2C6358.91 1412.02 6381.04 1345.62 6389.83 1274.98C6341.33 1274.33 6297.22 1260.82 6257.51 1234.45C6204.77 1199.3 6167.18 1147.21 6144.71 1078.2C6091.33 1157.96 6063.99 1247.64 6062.68 1347.25ZM6287.78 999.102C6279.32 999.102 6271.67 1000.89 6264.83 1004.47C6246.93 1014.56 6237.98 1034.42 6237.98 1064.04C6237.98 1069.25 6238.46 1074.79 6239.44 1080.64C6245.3 1115.8 6267.76 1145.26 6306.82 1169.02C6336.77 1186.93 6365.26 1196.2 6392.27 1196.86C6390.32 1169.19 6386.41 1143.31 6380.55 1119.22C6362.65 1042.07 6331.73 1002.03 6287.78 999.102ZM6825.38 906.328C6963.73 906.979 7034.2 958.737 7036.8 1061.6C7036.15 1148.84 7006.86 1215.25 6948.91 1260.82C7036.15 1287.19 7079.94 1344.97 7080.26 1434.16C7077.98 1470.29 7070.33 1502.52 7057.31 1530.84C7013.37 1625.89 6910.5 1673.42 6748.72 1673.42C6729.19 1673.42 6699.89 1672.28 6660.83 1670C6653.02 1670 6645.85 1667.88 6639.34 1663.65C6626.65 1654.54 6620.3 1640.87 6620.3 1622.64L6709.17 950.273C6709.49 944.74 6710.8 939.368 6713.07 934.16C6719.91 919.512 6731.63 912.188 6748.23 912.188C6775.25 908.281 6800.96 906.328 6825.38 906.328ZM6741.39 1317.95C6741.39 1317.95 6729.19 1410.07 6704.77 1594.32C6723.33 1595.62 6737.81 1596.27 6748.23 1596.27C6799.34 1596.27 6844.1 1590.25 6882.51 1578.2C6962.26 1552.81 7002.14 1504.8 7002.14 1434.16C7001.81 1385.98 6969.91 1352.94 6906.43 1335.04C6872.25 1325.92 6817.24 1320.23 6741.39 1317.95ZM6782.9 981.035L6750.67 1237.38C6761.41 1237.38 6771.34 1237.06 6780.46 1236.41C6899.6 1229.9 6959.17 1172.12 6959.17 1063.07C6958.84 1036.37 6947.94 1015.87 6926.45 1001.54C6903.02 986.895 6862.98 979.57 6806.34 979.57C6798.85 979.57 6791.04 980.059 6782.9 981.035ZM7306.34 913.164C7306.34 913.164 7410.67 913.164 7619.32 913.164C7625.83 913.164 7631.86 913.978 7637.39 915.605C7655.29 921.465 7664.25 933.835 7664.25 952.715C7664.25 957.923 7663.11 962.806 7660.83 967.363C7654.32 981.361 7641.3 989.824 7621.77 992.754H7340.52L7306.34 1259.84H7508.97C7516.79 1259.84 7524.11 1261.31 7530.95 1264.24C7546.9 1271.4 7554.87 1283.61 7554.87 1300.86C7554.87 1305.42 7554.06 1309.81 7552.43 1314.04C7546.57 1328.37 7533.22 1337.15 7512.39 1340.41H7296.57L7264.34 1589.43H7542.18C7549.66 1589.43 7556.66 1590.57 7563.17 1592.85C7580.1 1599.69 7588.56 1612.06 7588.56 1629.96C7588.56 1633.87 7587.91 1637.94 7586.61 1642.17C7581.4 1657.47 7568.05 1666.74 7546.57 1670H7220.89C7212.75 1670 7205.26 1667.88 7198.43 1663.65C7185.4 1654.86 7178.89 1641.19 7178.89 1622.64C7178.89 1618.08 7208.35 1393.96 7267.27 950.273C7267.92 945.391 7269.23 940.833 7271.18 936.602C7278.02 920.977 7289.73 913.164 7306.34 913.164Z" fill="white"/>
</svg>
